<svg width="16" height="16" viewBox="0 0 16 16" fill="none" xmlns="http://www.w3.org/2000/svg">
<path d="M7.99967 1.33334C4.32367 1.33334 1.33301 4.32401 1.33301 8.00001V10.762C1.33301 11.4447 1.93101 12 2.66634 12H3.33301C3.50982 12 3.67939 11.9298 3.80441 11.8047C3.92944 11.6797 3.99967 11.5102 3.99967 11.3333V7.90468C3.99967 7.72787 3.92944 7.5583 3.80441 7.43327C3.67939 7.30825 3.50982 7.23801 3.33301 7.23801H2.72767C3.09834 4.65801 5.31834 2.66668 7.99967 2.66668C10.681 2.66668 12.901 4.65801 13.2717 7.23801H12.6663C12.4895 7.23801 12.32 7.30825 12.1949 7.43327C12.0699 7.5583 11.9997 7.72787 11.9997 7.90468V12C11.9997 12.7353 11.4017 13.3333 10.6663 13.3333H9.33301V12.6667H6.66634V14.6667H10.6663C12.137 14.6667 13.333 13.4707 13.333 12C14.0683 12 14.6663 11.4447 14.6663 10.762V8.00001C14.6663 4.32401 11.6757 1.33334 7.99967 1.33334Z" fill="#FCFAFA"/>
</svg>
