<svg width="15" height="15" viewBox="0 0 15 15" fill="none" xmlns="http://www.w3.org/2000/svg">
<path d="M7.5 1.5C5.9087 1.5 4.38258 2.13214 3.25736 3.25736C2.13214 4.38258 1.5 5.9087 1.5 7.5C1.5 9.0913 2.13214 10.6174 3.25736 11.7426C4.38258 12.8679 5.9087 13.5 7.5 13.5C9.0913 13.5 10.6174 12.8679 11.7426 11.7426C12.8679 10.6174 13.5 9.0913 13.5 7.5C13.5 5.9087 12.8679 4.38258 11.7426 3.25736C10.6174 2.13214 9.0913 1.5 7.5 1.5ZM0 7.5C0 3.35775 3.35775 0 7.5 0C11.6423 0 15 3.35775 15 7.5C15 11.6423 11.6423 15 7.5 15C3.35775 15 0 11.6423 0 7.5Z" fill="#8F8F8F"/>
<path d="M7.5 6C7.69891 6 7.88968 6.07902 8.03033 6.21967C8.17098 6.36032 8.25 6.55109 8.25 6.75V11.25C8.25 11.4489 8.17098 11.6397 8.03033 11.7803C7.88968 11.921 7.69891 12 7.5 12C7.30109 12 7.11032 11.921 6.96967 11.7803C6.82902 11.6397 6.75 11.4489 6.75 11.25V6.75C6.75 6.55109 6.82902 6.36032 6.96967 6.21967C7.11032 6.07902 7.30109 6 7.5 6ZM8.625 4.125C8.625 4.42337 8.50647 4.70952 8.2955 4.9205C8.08452 5.13147 7.79837 5.25 7.5 5.25C7.20163 5.25 6.91548 5.13147 6.7045 4.9205C6.49353 4.70952 6.375 4.42337 6.375 4.125C6.375 3.82663 6.49353 3.54048 6.7045 3.3295C6.91548 3.11853 7.20163 3 7.5 3C7.79837 3 8.08452 3.11853 8.2955 3.3295C8.50647 3.54048 8.625 3.82663 8.625 4.125Z" fill="#8F8F8F"/>
</svg>
