<svg width="45" height="45" viewBox="0 0 45 45" fill="none" xmlns="http://www.w3.org/2000/svg">
<rect width="45" height="45" rx="15" fill="#0894DC"/>
<path d="M31.25 11.037H28.75V9.78705C28.75 9.45553 28.6183 9.13759 28.3839 8.90316C28.1495 8.66874 27.8315 8.53705 27.5 8.53705C27.1685 8.53705 26.8505 8.66874 26.6161 8.90316C26.3817 9.13759 26.25 9.45553 26.25 9.78705V11.037H18.75V9.78705C18.75 9.45553 18.6183 9.13759 18.3839 8.90316C18.1495 8.66874 17.8315 8.53705 17.5 8.53705C17.1685 8.53705 16.8505 8.66874 16.6161 8.90316C16.3817 9.13759 16.25 9.45553 16.25 9.78705V11.037H13.75C12.7554 11.037 11.8016 11.4321 11.0983 12.1354C10.3951 12.8387 10 13.7925 10 14.787V29.787C10 30.7816 10.3951 31.7354 11.0983 32.4387C11.8016 33.142 12.7554 33.537 13.75 33.537H31.25C32.2446 33.537 33.1984 33.142 33.9017 32.4387C34.6049 31.7354 35 30.7816 35 29.787V14.787C35 13.7925 34.6049 12.8387 33.9017 12.1354C33.1984 11.4321 32.2446 11.037 31.25 11.037ZM32.5 29.787C32.5 30.1186 32.3683 30.4365 32.1339 30.6709C31.8995 30.9054 31.5815 31.037 31.25 31.037H13.75C13.4185 31.037 13.1005 30.9054 12.8661 30.6709C12.6317 30.4365 12.5 30.1186 12.5 29.787V21.037H32.5V29.787ZM32.5 18.537H12.5V14.787C12.5 14.4555 12.6317 14.1376 12.8661 13.9032C13.1005 13.6687 13.4185 13.537 13.75 13.537H16.25V14.787C16.25 15.1186 16.3817 15.4365 16.6161 15.6709C16.8505 15.9054 17.1685 16.037 17.5 16.037C17.8315 16.037 18.1495 15.9054 18.3839 15.6709C18.6183 15.4365 18.75 15.1186 18.75 14.787V13.537H26.25V14.787C26.25 15.1186 26.3817 15.4365 26.6161 15.6709C26.8505 15.9054 27.1685 16.037 27.5 16.037C27.8315 16.037 28.1495 15.9054 28.3839 15.6709C28.6183 15.4365 28.75 15.1186 28.75 14.787V13.537H31.25C31.5815 13.537 31.8995 13.6687 32.1339 13.9032C32.3683 14.1376 32.5 14.4555 32.5 14.787V18.537Z" fill="#F0F0F0"/>
</svg>
