<svg width="16" height="16" viewBox="0 0 16 16" fill="none" xmlns="http://www.w3.org/2000/svg">
<path d="M8.00016 1.33334C4.32416 1.33334 1.3335 4.32401 1.3335 8.00001V10.762C1.3335 11.4447 1.9315 12 2.66683 12H3.3335C3.51031 12 3.67988 11.9298 3.8049 11.8047C3.92992 11.6797 4.00016 11.5102 4.00016 11.3333V7.90468C4.00016 7.72787 3.92992 7.5583 3.8049 7.43327C3.67988 7.30825 3.51031 7.23801 3.3335 7.23801H2.72816C3.09883 4.65801 5.31883 2.66668 8.00016 2.66668C10.6815 2.66668 12.9015 4.65801 13.2722 7.23801H12.6668C12.49 7.23801 12.3204 7.30825 12.1954 7.43327C12.0704 7.5583 12.0002 7.72787 12.0002 7.90468V12C12.0002 12.7353 11.4022 13.3333 10.6668 13.3333H9.3335V12.6667H6.66683V14.6667H10.6668C12.1375 14.6667 13.3335 13.4707 13.3335 12C14.0688 12 14.6668 11.4447 14.6668 10.762V8.00001C14.6668 4.32401 11.6762 1.33334 8.00016 1.33334Z" fill="#FCFAFA"/>
</svg>
