<svg width="24" height="18" viewBox="0 0 24 18" fill="none" xmlns="http://www.w3.org/2000/svg">
<path fill-rule="evenodd" clip-rule="evenodd" d="M5.18948 0.440525C6.22222 -0.0303243 7.38661 -0.127174 8.48294 0.166588C9.01641 0.30953 9.33299 0.857867 9.19005 1.39133C9.04711 1.9248 8.49877 2.24138 7.9653 2.09844C7.31747 1.92485 6.62942 1.98208 6.01917 2.26031C5.40892 2.53854 4.91448 3.02043 4.62067 3.62334C4.32686 4.22624 4.25198 4.91259 4.40887 5.56467C4.56576 6.21675 4.94464 6.79392 5.48054 7.1972C5.77128 7.41599 5.92023 7.77542 5.86947 8.13573C5.81872 8.49603 5.57626 8.80033 5.2364 8.93028C4.55706 9.19004 3.93298 9.59126 3.40881 10.1154C3.23222 10.292 3.06962 10.4799 2.92169 10.6774C2.61346 11.0889 2.63356 11.4336 2.79577 11.7423C2.98731 12.1068 3.42744 12.4847 4.04999 12.6806C4.57683 12.8463 4.86956 13.4077 4.70384 13.9345C4.53811 14.4614 3.97668 14.7541 3.44985 14.5884C2.42804 14.267 1.50929 13.5936 1.02534 12.6727C0.51205 11.6959 0.540025 10.521 1.32095 9.4784C1.52558 9.2052 1.75046 8.94534 1.99459 8.70122C2.371 8.32481 2.7847 7.99423 3.22697 7.7131C2.87098 7.21007 2.61065 6.64053 2.46436 6.03252C2.19885 4.929 2.32558 3.76749 2.8228 2.74719C3.32002 1.72688 4.15675 0.911375 5.18948 0.440525ZM17.9808 2.26031C17.3705 1.98208 16.6825 1.92485 16.0346 2.09844C15.5012 2.24138 14.9528 1.9248 14.8099 1.39133C14.667 0.857867 14.9835 0.30953 15.517 0.166588C16.6133 -0.127174 17.7777 -0.0303243 18.8105 0.440525C19.8432 0.911375 20.6799 1.72688 21.1771 2.74719C21.6744 3.76749 21.8011 4.929 21.5356 6.03252C21.3893 6.64053 21.129 7.21007 20.773 7.7131C21.2153 7.99423 21.6289 8.32481 22.0054 8.70122C22.2495 8.94534 22.4744 9.2052 22.679 9.4784C23.4599 10.521 23.4879 11.6959 22.9746 12.6727C22.4907 13.5936 21.5719 14.267 20.5501 14.5884C20.0233 14.7541 19.4618 14.4614 19.2961 13.9345C19.1304 13.4077 19.4231 12.8463 19.95 12.6806C20.5725 12.4847 21.0126 12.1068 21.2042 11.7423C21.3664 11.4336 21.3865 11.0889 21.0783 10.6774C20.9303 10.4799 20.7677 10.292 20.5911 10.1154C20.067 9.59126 19.4429 9.19004 18.7635 8.93028C18.4237 8.80033 18.1812 8.49603 18.1305 8.13573C18.0797 7.77542 18.2287 7.41599 18.5194 7.1972C19.0553 6.79392 19.4342 6.21675 19.5911 5.56467C19.748 4.91259 19.6731 4.22624 19.3793 3.62334C19.0855 3.02043 18.591 2.53854 17.9808 2.26031ZM12.0001 4C10.4046 4 9.11121 5.2934 9.11121 6.88889C9.11121 8.48439 10.4046 9.77783 12.0001 9.77783C13.5956 9.77783 14.889 8.4844 14.889 6.88889C14.889 5.2934 13.5956 4 12.0001 4ZM15.2435 10.5471C16.2529 9.65145 16.889 8.34444 16.889 6.88889C16.889 4.18883 14.7002 2 12.0001 2C9.30004 2 7.11121 4.18883 7.11121 6.88889C7.11121 8.34445 7.74732 9.65146 8.75671 10.5471C8.07393 10.8902 7.44373 11.3427 6.89324 11.8932C6.64911 12.1373 6.42422 12.3972 6.21959 12.6704C5.76096 13.2826 5.545 13.9651 5.58302 14.6538C5.62047 15.3319 5.8994 15.939 6.29816 16.4291C7.08285 17.3936 8.39857 18.0001 9.7779 18.0001H14.2223C15.6017 18.0001 16.9174 17.3936 17.7021 16.4291C18.1008 15.939 18.3798 15.3319 18.4172 14.6538C18.4552 13.9651 18.2393 13.2826 17.7807 12.6704C17.576 12.3972 17.3511 12.1373 17.107 11.8932C16.5565 11.3427 15.9263 10.8902 15.2435 10.5471ZM12.0001 11.7778C10.6151 11.7778 9.28681 12.328 8.30745 13.3074C8.13086 13.484 7.96826 13.6719 7.82033 13.8694C7.61677 14.1411 7.57024 14.367 7.57998 14.5435C7.59031 14.7306 7.66943 14.9455 7.84956 15.1669C8.22265 15.6255 8.94809 16.0001 9.7779 16.0001H14.2223C15.0522 16.0001 15.7776 15.6255 16.1507 15.1669C16.3308 14.9455 16.4099 14.7306 16.4203 14.5435C16.43 14.367 16.3835 14.1411 16.1799 13.8694C16.032 13.6719 15.8694 13.484 15.6928 13.3074C14.7134 12.328 13.3851 11.7778 12.0001 11.7778Z" fill="#4B6691"/>
</svg>
