<svg width="33" height="32" viewBox="0 0 33 32" fill="none" xmlns="http://www.w3.org/2000/svg">
<path d="M16.6165 9.33333C16.6165 7.91885 16.0546 6.56229 15.0544 5.5621C14.0542 4.5619 12.6977 4 11.2832 4H3.2832V24H12.6165C13.6774 24 14.6948 24.4214 15.445 25.1716C16.1951 25.9217 16.6165 26.9391 16.6165 28M16.6165 9.33333V28M16.6165 9.33333C16.6165 7.91885 17.1784 6.56229 18.1786 5.5621C19.1788 4.5619 20.5354 4 21.9499 4H29.9499V24H20.6165C19.5557 24 18.5383 24.4214 17.7881 25.1716C17.038 25.9217 16.6165 26.9391 16.6165 28" stroke="#4B6691" stroke-width="3" stroke-linecap="round" stroke-linejoin="round"/>
</svg>
