<svg width="33" height="32" viewBox="0 0 33 32" fill="none" xmlns="http://www.w3.org/2000/svg">
<g clip-path="url(#clip0_243_671)">
<path d="M20.6164 9.33337H24.6164C25.4919 9.33337 26.3588 9.50581 27.1676 9.84084C27.9764 10.1759 28.7114 10.6669 29.3304 11.286C29.9495 11.9051 30.4405 12.64 30.7756 13.4488C31.1106 14.2577 31.283 15.1246 31.283 16C31.283 16.8755 31.1106 17.7424 30.7756 18.5513C30.4405 19.3601 29.9495 20.095 29.3304 20.7141C28.7114 21.3331 27.9764 21.8242 27.1676 22.1592C26.3588 22.4943 25.4919 22.6667 24.6164 22.6667H20.6164M12.6164 22.6667H8.61637C7.74089 22.6667 6.87399 22.4943 6.06515 22.1592C5.25631 21.8242 4.52139 21.3331 3.90233 20.7141C2.65209 19.4638 1.94971 17.7682 1.94971 16C1.94971 14.2319 2.65209 12.5362 3.90233 11.286C5.15257 10.0358 6.84826 9.33337 8.61637 9.33337H12.6164M11.283 16H21.9497" stroke="#4B6691" stroke-width="3" stroke-linecap="round" stroke-linejoin="round"/>
</g>
<defs>
<clipPath id="clip0_243_671">
<rect width="32" height="32" fill="white" transform="translate(0.616455)"/>
</clipPath>
</defs>
</svg>
