<svg width="45" height="45" viewBox="0 0 45 45" fill="none" xmlns="http://www.w3.org/2000/svg">
<rect width="45" height="45" rx="15" fill="#0894DC"/>
<path d="M15.5556 27.037H25.2778V29.537H15.5556V27.037ZM15.5556 22.037H29.4444V24.537H15.5556V22.037ZM15.5556 17.037H29.4444V19.537H15.5556V17.037ZM32.2222 12.037H26.4167C25.8333 10.587 24.3056 9.53705 22.5 9.53705C20.6944 9.53705 19.1667 10.587 18.5833 12.037H12.7778C12.5833 12.037 12.4028 12.0495 12.2222 12.087C11.6806 12.187 11.1944 12.437 10.8194 12.7745C10.5694 12.9995 10.3611 13.2745 10.2222 13.5745C10.0833 13.862 10 14.187 10 14.537V32.037C10 32.3745 10.0833 32.712 10.2222 33.012C10.3611 33.312 10.5694 33.5745 10.8194 33.812C11.1944 34.1495 11.6806 34.3995 12.2222 34.4995C12.4028 34.5245 12.5833 34.537 12.7778 34.537H32.2222C33.75 34.537 35 33.412 35 32.037V14.537C35 13.162 33.75 12.037 32.2222 12.037ZM22.5 11.7245C23.0694 11.7245 23.5417 12.1495 23.5417 12.662C23.5417 13.1745 23.0694 13.5995 22.5 13.5995C21.9306 13.5995 21.4583 13.1745 21.4583 12.662C21.4583 12.1495 21.9306 11.7245 22.5 11.7245ZM32.2222 32.037H12.7778V14.537H32.2222V32.037Z" fill="#F0F0F0"/>
</svg>
