<svg width="30" height="35" viewBox="0 0 30 35" fill="none" xmlns="http://www.w3.org/2000/svg">
<path d="M15 34.2856C17.3652 34.2856 19.2838 32.3671 19.2838 29.9999H10.7163C10.7163 32.3671 12.6349 34.2856 15 34.2856ZM29.4235 24.2604C28.1297 22.8702 25.709 20.779 25.709 13.9285C25.709 8.72542 22.0608 4.56025 17.1416 3.53838V2.14285C17.1416 0.959595 16.1826 0 15 0C13.8175 0 12.8585 0.959595 12.8585 2.14285V3.53838C7.93933 4.56025 4.29112 8.72542 4.29112 13.9285C4.29112 20.779 1.87036 22.8702 0.576609 24.2604C0.174823 24.6923 -0.00330192 25.2086 4.62983e-05 25.7142C0.00741237 26.8124 0.869242 27.8571 2.1496 27.8571H27.8505C29.1308 27.8571 29.9933 26.8124 30 25.7142C30.0034 25.2086 29.8253 24.6917 29.4235 24.2604Z" fill="#4C6793"/>
</svg>
