<svg width="39" height="36" viewBox="0 0 39 36" fill="none" xmlns="http://www.w3.org/2000/svg">
<path d="M34.8214 4.5H30.6429V0.84375C30.6429 0.379688 30.1728 0 29.5982 0H26.1161C25.5415 0 25.0714 0.379688 25.0714 0.84375V4.5H13.9286V0.84375C13.9286 0.379688 13.4585 0 12.8839 0H9.40178C8.82723 0 8.35714 0.379688 8.35714 0.84375V4.5H4.17857C1.87165 4.5 0 6.01172 0 7.875V32.625C0 34.4883 1.87165 36 4.17857 36H34.8214C37.1283 36 39 34.4883 39 32.625V7.875C39 6.01172 37.1283 4.5 34.8214 4.5ZM34.2991 32.625H4.70089C4.41362 32.625 4.17857 32.4352 4.17857 32.2031V11.25H34.8214V32.2031C34.8214 32.4352 34.5864 32.625 34.2991 32.625Z" fill="#F5F5F5"/>
<path d="M31.7211 17.6629C25.1779 11.4446 15.0013 11.4469 8.46068 17.6629C8.21471 17.8966 8.20991 18.2924 8.44775 18.5349L9.7123 19.8239C9.93906 20.0554 10.3039 20.0603 10.5396 19.8383C15.9287 14.7656 24.2524 14.7645 29.6426 19.8383C29.8782 20.0603 30.2431 20.055 30.4698 19.8239L31.7344 18.5349C31.9719 18.2924 31.9671 17.8966 31.7211 17.6629ZM20.0909 25.1429C18.7853 25.1429 17.7272 26.23 17.7272 27.5714C17.7272 28.9128 18.7853 30 20.0909 30C21.3964 30 22.4545 28.9128 22.4545 27.5714C22.4545 26.23 21.3964 25.1429 20.0909 25.1429ZM27.5759 21.9709C23.3191 18.103 16.8579 18.1072 12.6059 21.9709C12.3511 22.2024 12.343 22.6042 12.5849 22.8494L13.8568 24.1392C14.0784 24.3638 14.4351 24.379 14.6711 24.1695C17.7716 21.4158 22.4172 21.4218 25.5103 24.1695C25.7463 24.379 26.103 24.3642 26.3246 24.1392L27.5965 22.8494C27.8388 22.6042 27.8303 22.202 27.5759 21.9709Z" fill="#FFF8F8"/>
</svg>
