<svg width="16" height="16" viewBox="0 0 16 16" fill="none" xmlns="http://www.w3.org/2000/svg">
<path d="M7.99992 1.33334C4.32392 1.33334 1.33325 4.32401 1.33325 8.00001V10.762C1.33325 11.4447 1.93125 12 2.66659 12H3.33325C3.51006 12 3.67963 11.9298 3.80466 11.8047C3.92968 11.6797 3.99992 11.5102 3.99992 11.3333V7.90468C3.99992 7.72787 3.92968 7.5583 3.80466 7.43327C3.67963 7.30825 3.51006 7.23801 3.33325 7.23801H2.72792C3.09859 4.65801 5.31859 2.66668 7.99992 2.66668C10.6813 2.66668 12.9013 4.65801 13.2719 7.23801H12.6666C12.4898 7.23801 12.3202 7.30825 12.1952 7.43327C12.0702 7.5583 11.9999 7.72787 11.9999 7.90468V12C11.9999 12.7353 11.4019 13.3333 10.6666 13.3333H9.33325V12.6667H6.66659V14.6667H10.6666C12.1373 14.6667 13.3333 13.4707 13.3333 12C14.0686 12 14.6666 11.4447 14.6666 10.762V8.00001C14.6666 4.32401 11.6759 1.33334 7.99992 1.33334Z" fill="#FCFAFA"/>
</svg>
