<svg width="45" height="45" viewBox="0 0 45 45" fill="none" xmlns="http://www.w3.org/2000/svg">
<rect width="45" height="45" rx="15" fill="#0894DC"/>
<path d="M15.5556 27.0371H25.2778V29.5371H15.5556V27.0371ZM15.5556 22.0371H29.4444V24.5371H15.5556V22.0371ZM15.5556 17.0371H29.4444V19.5371H15.5556V17.0371ZM32.2222 12.0371H26.4167C25.8333 10.5871 24.3056 9.53711 22.5 9.53711C20.6944 9.53711 19.1667 10.5871 18.5833 12.0371H12.7778C12.5833 12.0371 12.4028 12.0496 12.2222 12.0871C11.6806 12.1871 11.1944 12.4371 10.8194 12.7746C10.5694 12.9996 10.3611 13.2746 10.2222 13.5746C10.0833 13.8621 10 14.1871 10 14.5371V32.0371C10 32.3746 10.0833 32.7121 10.2222 33.0121C10.3611 33.3121 10.5694 33.5746 10.8194 33.8121C11.1944 34.1496 11.6806 34.3996 12.2222 34.4996C12.4028 34.5246 12.5833 34.5371 12.7778 34.5371H32.2222C33.75 34.5371 35 33.4121 35 32.0371V14.5371C35 13.1621 33.75 12.0371 32.2222 12.0371ZM22.5 11.7246C23.0694 11.7246 23.5417 12.1496 23.5417 12.6621C23.5417 13.1746 23.0694 13.5996 22.5 13.5996C21.9306 13.5996 21.4583 13.1746 21.4583 12.6621C21.4583 12.1496 21.9306 11.7246 22.5 11.7246ZM32.2222 32.0371H12.7778V14.5371H32.2222V32.0371Z" fill="#F0F0F0"/>
</svg>
