<svg width="16" height="16" viewBox="0 0 16 16" fill="none" xmlns="http://www.w3.org/2000/svg">
<path d="M8.00016 1.33337C4.32416 1.33337 1.3335 4.32404 1.3335 8.00004V10.762C1.3335 11.4447 1.9315 12 2.66683 12H3.3335C3.51031 12 3.67988 11.9298 3.8049 11.8048C3.92992 11.6798 4.00016 11.5102 4.00016 11.3334V7.90471C4.00016 7.7279 3.92992 7.55833 3.8049 7.4333C3.67988 7.30828 3.51031 7.23804 3.3335 7.23804H2.72816C3.09883 4.65804 5.31883 2.66671 8.00016 2.66671C10.6815 2.66671 12.9015 4.65804 13.2722 7.23804H12.6668C12.49 7.23804 12.3204 7.30828 12.1954 7.4333C12.0704 7.55833 12.0002 7.7279 12.0002 7.90471V12C12.0002 12.7354 11.4022 13.3334 10.6668 13.3334H9.3335V12.6667H6.66683V14.6667H10.6668C12.1375 14.6667 13.3335 13.4707 13.3335 12C14.0688 12 14.6668 11.4447 14.6668 10.762V8.00004C14.6668 4.32404 11.6762 1.33337 8.00016 1.33337Z" fill="#FCFAFA"/>
</svg>
