<svg width="45" height="45" viewBox="0 0 45 45" fill="none" xmlns="http://www.w3.org/2000/svg">
<rect width="45" height="45" rx="15" fill="#D1E9F6"/>
<path d="M25.3 15.3834C24.343 15.7684 23.463 16.1974 22.77 16.6264L22.583 16.7473C22.264 16.9454 21.736 16.9454 21.417 16.7473L21.142 16.5824C19.184 15.3614 15.686 14.1954 13.376 14.0084C12.067 13.8984 11 14.8883 11 16.1973V29.4854C11 30.5414 11.858 31.5313 12.914 31.6633L13.233 31.7074C15.62 32.0264 19.305 33.2364 21.417 34.3914L21.461 34.4133C21.758 34.5783 22.231 34.5783 22.517 34.4133C24.629 33.2473 28.325 32.0264 30.723 31.7074L31.086 31.6633C32.142 31.5313 33 30.5414 33 29.4854V16.2084C33 14.8884 31.922 13.9094 30.613 14.0194H30.547C30.283 14.0414 29.997 14.0744 29.7 14.1294M25.3 15.3834V19.8714L27.5 18.4083L29.7 19.8714V14.1294M25.3 15.3834C26.741 14.8114 28.347 14.3494 29.7 14.1294M22 17.1104V33.6104" stroke="#4C6793" stroke-width="2.81913" stroke-linecap="round" stroke-linejoin="round"/>
</svg>
