<svg width="45" height="45" viewBox="0 0 45 45" fill="none" xmlns="http://www.w3.org/2000/svg">
<rect width="45" height="45" rx="15" fill="#D1E9F6"/>
<path d="M31.25 11.0371H28.75V9.78711C28.75 9.45559 28.6183 9.13765 28.3839 8.90323C28.1495 8.66881 27.8315 8.53711 27.5 8.53711C27.1685 8.53711 26.8505 8.66881 26.6161 8.90323C26.3817 9.13765 26.25 9.45559 26.25 9.78711V11.0371H18.75V9.78711C18.75 9.45559 18.6183 9.13765 18.3839 8.90323C18.1495 8.66881 17.8315 8.53711 17.5 8.53711C17.1685 8.53711 16.8505 8.66881 16.6161 8.90323C16.3817 9.13765 16.25 9.45559 16.25 9.78711V11.0371H13.75C12.7554 11.0371 11.8016 11.4322 11.0983 12.1355C10.3951 12.8387 10 13.7925 10 14.7871V29.7871C10 30.7817 10.3951 31.7355 11.0983 32.4388C11.8016 33.142 12.7554 33.5371 13.75 33.5371H31.25C32.2446 33.5371 33.1984 33.142 33.9017 32.4388C34.6049 31.7355 35 30.7817 35 29.7871V14.7871C35 13.7925 34.6049 12.8387 33.9017 12.1355C33.1984 11.4322 32.2446 11.0371 31.25 11.0371ZM32.5 29.7871C32.5 30.1186 32.3683 30.4366 32.1339 30.671C31.8995 30.9054 31.5815 31.0371 31.25 31.0371H13.75C13.4185 31.0371 13.1005 30.9054 12.8661 30.671C12.6317 30.4366 12.5 30.1186 12.5 29.7871V21.0371H32.5V29.7871ZM32.5 18.5371H12.5V14.7871C12.5 14.4556 12.6317 14.1376 12.8661 13.9032C13.1005 13.6688 13.4185 13.5371 13.75 13.5371H16.25V14.7871C16.25 15.1186 16.3817 15.4366 16.6161 15.671C16.8505 15.9054 17.1685 16.0371 17.5 16.0371C17.8315 16.0371 18.1495 15.9054 18.3839 15.671C18.6183 15.4366 18.75 15.1186 18.75 14.7871V13.5371H26.25V14.7871C26.25 15.1186 26.3817 15.4366 26.6161 15.671C26.8505 15.9054 27.1685 16.0371 27.5 16.0371C27.8315 16.0371 28.1495 15.9054 28.3839 15.671C28.6183 15.4366 28.75 15.1186 28.75 14.7871V13.5371H31.25C31.5815 13.5371 31.8995 13.6688 32.1339 13.9032C32.3683 14.1376 32.5 14.4556 32.5 14.7871V18.5371Z" fill="#4C6793"/>
</svg>
